HIERARCHY
ROOT Hip
{
	OFFSET 0.000000 0.000000 0.000000 
	CHANNELS 6 Xposition Yposition Zposition Xrotation Yrotation Zrotation
	JOINT LowerSpine
	{
		OFFSET 0.000000 8.345300 -5.129200 
		CHANNELS 3 Xrotation Yrotation Zrotation
		JOINT MiddleSpine
		{
			OFFSET 10.856900 0.000000 0.000000 
			CHANNELS 3 Xrotation Yrotation Zrotation
			JOINT Chest
			{
				OFFSET 15.298400 0.000000 0.000000 
				CHANNELS 3 Xrotation Yrotation Zrotation
				JOINT Neck
				{
					OFFSET 25.661800 -0.598600 0.000000 
					CHANNELS 3 Xrotation Yrotation Zrotation
					JOINT Head
					{
						OFFSET 8.882900 0.000000 0.000000 
						CHANNELS 3 Xrotation Yrotation Zrotation
						End Site
						{
							OFFSET 19.739901 0.000000 0.000000 
						}
					}
				}
				JOINT RClavicle
				{
					OFFSET 23.687799 0.000000 3.158400 
					CHANNELS 3 Xrotation Yrotation Zrotation
					JOINT RShoulder
					{
						OFFSET -15.594500 -3.948000 0.987000 
						CHANNELS 3 Xrotation Yrotation Zrotation
						JOINT RForearm
						{
							OFFSET -31.337000 0.000000 0.197400 
							CHANNELS 3 Xrotation Yrotation Zrotation
							JOINT RHand
							{
								OFFSET -26.402100 0.000000 0.000000 
								CHANNELS 3 Xrotation Yrotation Zrotation
								End Site
								{
									OFFSET -15.791900 -0.987000 0.000000 
								}
							}
						}
					}
				}
				JOINT LClavicle
				{
					OFFSET 23.687799 0.000000 -3.158400 
					CHANNELS 3 Xrotation Yrotation Zrotation
					JOINT LShoulder
					{
						OFFSET -15.594500 -3.948000 -0.987000 
						CHANNELS 3 Xrotation Yrotation Zrotation
						JOINT LForearm
						{
							OFFSET -31.337000 0.000000 -0.197400 
							CHANNELS 3 Xrotation Yrotation Zrotation
							JOINT LHand
							{
								OFFSET -26.402100 0.000000 0.000000 
								CHANNELS 3 Xrotation Yrotation Zrotation
								End Site
								{
									OFFSET -15.791900 -0.987000 0.000000 
								}
							}
						}
					}
				}
			}
		}
	}
	JOINT RThigh
	{
		OFFSET -8.882900 0.448100 0.000000 
		CHANNELS 3 Xrotation Yrotation Zrotation
		JOINT RShin
		{
			OFFSET 43.131599 0.000000 -0.493500 
			CHANNELS 3 Xrotation Yrotation Zrotation
			JOINT RFoot
			{
				OFFSET 0.000000 -44.725601 -0.404700 
				CHANNELS 3 Xrotation Yrotation Zrotation
				JOINT RToe
				{
					OFFSET 0.000000 -3.933200 12.195300 
					CHANNELS 3 Xrotation Yrotation Zrotation
					End Site
					{
						OFFSET 6.772500 0.000000 0.000000 
					}
				}
			}
		}
	}
	JOINT LThigh
	{
		OFFSET 8.882900 0.448100 0.000000 
		CHANNELS 3 Xrotation Yrotation Zrotation
		JOINT LShin
		{
			OFFSET 43.131599 0.000000 0.493500 
			CHANNELS 3 Xrotation Yrotation Zrotation
			JOINT LFoot
			{
				OFFSET 0.000000 -44.725601 0.404700 
				CHANNELS 3 Xrotation Yrotation Zrotation
				JOINT LToe
				{
					OFFSET 0.000000 -3.933200 -12.195300 
					CHANNELS 3 Xrotation Yrotation Zrotation
					End Site
					{
						OFFSET 6.772500 0.000000 0.000000 
					}
				}
			}
		}
	}
}
MOTION
Frames: 14
Frame Time: 0.016949
7.320900 93.576202 -0.592700 -1.658881 0.638042 -0.167006 -89.999992 -90.000000 0.000000 -0.273219 0.020480 0.282083 -0.908331 0.049006 0.932639 0.000000 0.000000 0.000000 0.000000 0.000000 0.000000 90.463341 1.739147 -114.365402 14.089610 21.048241 79.128082 2.421728 24.463690 -6.443027 0.000000 0.000000 0.000000 -90.243317 -1.230146 -106.906898 -34.511608 -49.730640 45.308929 -1.809070 -19.336531 -6.214280 0.000000 0.000000 0.000000 -113.908203 87.992310 28.292070 89.951347 5.413314 89.996849 -3.228292 -0.630145 -0.227497 175.279007 90.000000 0.000000 -135.953903 88.625130 49.506809 -89.942863 -6.364759 89.996651 3.654942 -0.431821 0.152904 184.417099 -90.000000 0.000000 
7.318300 93.542099 -0.621300 -1.596005 0.519976 -0.093565 -89.999992 -90.000000 0.000000 -0.279837 0.061002 0.285248 -0.932391 0.193392 0.950928 0.000000 0.000000 0.000000 0.000000 0.000000 0.000000 90.467232 1.746711 -114.479698 13.872310 21.432859 79.355049 2.401944 24.304020 -6.434858 0.000000 0.000000 0.000000 -90.259460 -1.274583 -107.542198 -34.057961 -50.160961 46.195610 -1.773090 -19.024130 -6.202458 0.000000 0.000000 0.000000 -114.994003 88.061852 29.222620 89.950211 5.540520 89.996834 -3.439498 -0.597741 -0.218991 175.382797 90.000000 0.000000 -139.219604 88.689743 52.618069 -89.941177 -6.550397 89.996658 3.853162 -0.278768 0.142271 184.290405 -90.000000 0.000000 
7.310000 93.497101 -0.632200 -1.566076 0.494429 -0.032235 -89.999992 -90.000000 0.000000 -0.277912 0.105682 0.283102 -0.927117 0.344041 0.945462 0.000000 0.000000 0.000000 0.000000 0.000000 0.000000 90.472160 1.756258 -114.624199 13.783820 21.712830 79.653763 2.396710 24.261709 -6.432706 0.000000 0.000000 0.000000 -90.276367 -1.319527 -108.187500 -33.483391 -50.857761 47.102600 -1.694932 -18.341471 -6.177422 0.000000 0.000000 0.000000 -115.585098 88.107330 29.749479 89.949623 5.606591 89.996811 -3.793808 -0.531844 -0.182838 175.812698 90.000000 0.000000 -142.087601 88.732903 55.356251 -89.939262 -6.763346 89.996674 4.138823 -0.177028 0.134750 184.096893 -90.000000 0.000000 
7.281100 93.456497 -0.601000 -1.615786 0.615657 -0.009468 -89.999992 -90.000000 0.000000 -0.261882 0.150030 0.274241 -0.875040 0.493703 0.916737 0.000000 0.000000 0.000000 0.000000 0.000000 0.000000 90.478462 1.768392 -114.807999 13.811060 21.928980 80.073357 2.385636 24.172100 -6.428163 0.000000 0.000000 0.000000 -90.293587 -1.363810 -108.826103 -32.930092 -51.587349 47.747040 -1.641564 -17.872181 -6.160835 0.000000 0.000000 0.000000 -114.981003 88.085037 29.290449 89.950577 5.498899 89.996834 -4.087020 -0.643253 -0.197911 176.284897 90.000000 0.000000 -141.947693 88.715752 55.267132 -89.938957 -6.797169 89.996674 4.380059 -0.311487 0.158372 183.833801 -90.000000 0.000000 
7.257900 93.423599 -0.583900 -1.676378 0.712065 0.017870 -89.999992 -90.000000 0.000000 -0.230007 0.190511 0.259684 -0.769794 0.630392 0.868584 0.000000 0.000000 0.000000 0.000000 0.000000 0.000000 90.485733 1.782256 -115.018402 13.775270 22.272511 80.560806 2.361948 23.980000 -6.418499 0.000000 0.000000 0.000000 -90.310127 -1.405070 -109.423500 -32.400890 -52.283482 48.255119 -1.617443 -17.659250 -6.153475 0.000000 0.000000 0.000000 -114.848297 88.066566 29.243641 89.950478 5.510393 89.996834 -4.354749 -0.839998 -0.251617 176.642502 90.000000 0.000000 -142.047806 88.709663 55.443939 -89.939003 -6.793488 89.996674 4.601823 -0.390096 0.148788 183.483093 -90.000000 0.000000 
7.268400 93.397598 -0.594700 -1.701473 0.576102 0.091745 -89.999992 -90.000000 0.000000 -0.184802 0.222123 0.242825 -0.619623 0.737211 0.812236 0.000000 0.000000 0.000000 0.000000 0.000000 0.000000 90.492813 1.795644 -115.222099 13.513350 22.871309 80.976753 2.310526 23.560989 -6.397772 0.000000 0.000000 0.000000 -90.324593 -1.440107 -109.932899 -31.807171 -52.919460 49.004570 -1.590828 -17.423710 -6.145453 0.000000 0.000000 0.000000 -116.557602 88.142532 30.883640 89.949013 5.673460 89.996803 -4.612731 -0.816334 -0.241788 176.881302 90.000000 0.000000 -145.986298 88.776352 59.424149 -89.938927 -6.800984 89.996674 4.736825 -0.161279 0.055072 183.264801 -90.000000 0.000000 
7.297300 93.369904 -0.584000 -1.719980 0.184580 0.188369 -89.999992 -90.000000 0.000000 -0.132434 0.239619 0.228752 -0.445193 0.796670 0.764708 0.000000 0.000000 0.000000 0.000000 0.000000 0.000000 90.498123 1.805625 -115.374100 13.157400 23.530720 81.192436 2.256418 23.117170 -6.376336 0.000000 0.000000 0.000000 -90.335602 -1.466191 -110.313301 -31.245710 -53.204899 50.019840 -1.592290 -17.436670 -6.145891 0.000000 0.000000 0.000000 -119.736000 88.288612 33.961689 89.947327 5.861355 89.996780 -4.859972 -0.417846 -0.105471 177.053406 90.000000 0.000000 -152.725998 88.862083 66.316116 -89.940277 -6.650243 89.996658 4.765520 0.154035 -0.053057 183.218002 -90.000000 0.000000 
7.326000 93.341599 -0.551400 -1.739663 -0.179403 0.248016 -89.999992 -90.000000 0.000000 -0.080754 0.239908 0.221605 -0.272835 0.797992 0.739811 0.000000 0.000000 0.000000 0.000000 0.000000 0.000000 90.499962 1.809055 -115.426399 13.073470 23.854441 81.189407 2.252656 23.086201 -6.374860 0.000000 0.000000 0.000000 -90.342377 -1.482061 -110.545403 -30.781610 -53.266682 50.918671 -1.619978 -17.681660 -6.154244 0.000000 0.000000 0.000000 -122.700104 88.405983 36.891350 89.946449 5.958711 89.996773 -5.031012 0.094837 0.068780 177.125397 90.000000 0.000000 -157.851501 88.907089 71.642921 -89.942299 -6.425822 89.996658 4.756554 0.357951 -0.123829 183.263794 -90.000000 0.000000 
7.348400 93.328003 -0.529500 -1.750174 -0.257646 0.230316 -89.999992 -90.000000 0.000000 -0.037959 0.226223 0.221513 -0.126664 0.742895 0.737443 0.000000 0.000000 0.000000 0.000000 0.000000 0.000000 90.496582 1.802745 -115.330200 13.308960 23.826241 81.059532 2.277947 23.294121 -6.384820 0.000000 0.000000 0.000000 -90.344933 -1.487956 -110.631699 -30.343889 -53.500790 51.439610 -1.624280 -17.719660 -6.155552 0.000000 0.000000 0.000000 -123.389503 88.422096 37.650520 89.947311 5.862562 89.996780 -5.019706 0.301165 0.133418 177.079407 90.000000 0.000000 -158.212097 88.912140 72.089310 -89.943108 -6.335662 89.996658 4.744967 0.506936 -0.189979 183.378204 -90.000000 0.000000 
7.357600 93.328796 -0.528400 -1.748479 -0.208691 0.161214 -89.999992 -90.000000 0.000000 -0.010855 0.206069 0.222577 -0.022652 0.645877 0.739938 0.000000 0.000000 0.000000 0.000000 0.000000 0.000000 90.486328 1.783397 -115.035797 13.502410 23.858940 80.868843 2.282687 23.333010 -6.386696 0.000000 0.000000 0.000000 -90.343643 -1.484982 -110.588097 -29.841249 -53.898140 51.919361 -1.585776 -17.378941 -6.143943 0.000000 0.000000 0.000000 -122.114197 88.356071 36.437630 89.948380 5.743042 89.996788 -4.940548 0.131492 0.065521 177.057495 90.000000 0.000000 -155.253906 88.893303 69.129227 -89.943130 -6.333210 89.996651 4.748330 0.582109 -0.230649 183.462097 -90.000000 0.000000 
7.351300 93.334801 -0.532800 -1.751510 -0.127022 0.080969 -89.999992 -90.000000 0.000000 0.015967 0.151570 0.217736 0.034058 0.528705 0.719825 0.000000 0.000000 0.000000 0.000000 0.000000 0.000000 90.467903 1.748004 -114.499298 13.584220 24.045219 80.683739 2.292337 23.412130 -6.390523 0.000000 0.000000 0.000000 -90.339157 -1.474533 -110.435303 -29.048820 -54.570339 52.913078 -1.487243 -16.501230 -6.115233 0.000000 0.000000 0.000000 -120.030800 88.245216 34.384640 89.948837 5.692144 89.996803 -4.887539 -0.286048 -0.095625 177.100006 90.000000 0.000000 -150.479599 88.851624 64.348251 -89.943169 -6.328311 89.996658 4.771993 0.399894 -0.155882 183.450195 -90.000000 0.000000 
7.333600 93.348801 -0.520100 -1.791445 0.073713 -0.015997 -89.999992 -90.000000 0.000000 0.016108 0.120123 0.196029 0.048555 0.412297 0.654722 0.000000 0.000000 0.000000 0.000000 0.000000 0.000000 90.441109 1.695077 -113.701698 13.540750 24.447020 80.687477 2.302238 23.493191 -6.394464 0.000000 0.000000 0.000000 -90.332130 -1.458028 -110.194199 -27.898830 -55.587090 54.445560 -1.353366 -15.295790 -6.078557 0.000000 0.000000 0.000000 -117.658096 88.105118 32.149639 89.950211 5.539636 89.996811 -4.721473 -0.661975 -0.244009 177.014297 90.000000 0.000000 -144.123505 88.777924 58.002769 -89.942886 -6.359628 89.996658 4.810977 0.049680 -0.012146 183.352997 -90.000000 0.000000 
7.324900 93.366898 -0.488700 -1.870318 0.241949 -0.102333 -89.999992 -90.000000 0.000000 0.010586 0.091068 0.162512 0.032785 0.310093 0.539777 0.000000 0.000000 0.000000 0.000000 0.000000 0.000000 90.407516 1.625997 -112.669197 13.057590 25.427160 80.991943 2.245466 23.026970 -6.372045 0.000000 0.000000 0.000000 -90.323174 -1.436693 -109.883202 -26.758459 -56.442928 56.007000 -1.257812 -14.426730 -6.054049 0.000000 0.000000 0.000000 -116.369202 88.012917 31.105881 89.952820 5.247884 89.996880 -4.464759 -0.625626 -0.235453 176.826508 90.000000 0.000000 -139.646194 88.714348 53.587318 -89.942543 -6.398738 89.996658 4.801399 -0.127144 0.054292 183.316406 -90.000000 0.000000 
7.331700 93.368599 -0.462500 -1.957088 0.256424 -0.139800 -89.999992 -90.000000 0.000000 0.001569 0.069379 0.121176 0.000616 0.225552 0.390105 0.000000 0.000000 0.000000 0.000000 0.000000 0.000000 90.370178 1.545239 -111.473198 12.179180 26.897909 81.497620 2.137048 22.127560 -6.330419 0.000000 0.000000 0.000000 -90.312653 -1.411225 -109.512802 -25.812830 -56.933319 57.385719 -1.210747 -13.996130 -6.042494 0.000000 0.000000 0.000000 -116.468498 87.999443 31.372971 89.953796 5.137989 89.996902 -4.384424 -0.341513 -0.129753 176.774704 90.000000 0.000000 -138.432007 88.701897 52.475430 -89.942513 -6.402987 89.996651 4.811164 -0.117554 0.044768 183.308899 -90.000000 0.000000 
